<?xml version="1.0" standalone="no"?>
<!DOCTYPE svg PUBLIC "-//W3C//DTD SVG 20010904//EN"
 "http://www.w3.org/TR/2001/REC-SVG-20010904/DTD/svg10.dtd">
<svg version="1.0" xmlns="http://www.w3.org/2000/svg"
 width="53.000000pt" height="58.000000pt" viewBox="0 0 53.000000 58.000000"
 preserveAspectRatio="xMidYMid meet">

<g transform="translate(0.000000,58.000000) scale(0.100000,-0.100000)"
fill="#000000" stroke="none">
<path d="M34 496 c-3 -8 -4 -25 -2 -38 l3 -23 225 0 225 0 0 35 0 35 -223 3
c-187 2 -223 0 -228 -12z"/>
<path d="M34 316 c-3 -8 -4 -25 -2 -38 l3 -23 225 0 225 0 0 35 0 35 -223 3
c-187 2 -223 0 -228 -12z"/>
<path d="M34 136 c-3 -8 -4 -25 -2 -38 l3 -23 225 0 225 0 0 35 0 35 -223 3
c-187 2 -223 0 -228 -12z"/>
</g>
</svg>
