<?xml version="1.0" standalone="no"?>
<!DOCTYPE svg PUBLIC "-//W3C//DTD SVG 20010904//EN"
 "http://www.w3.org/TR/2001/REC-SVG-20010904/DTD/svg10.dtd">
<svg version="1.0" xmlns="http://www.w3.org/2000/svg"
 width="48.000000pt" height="53.000000pt" viewBox="0 0 48.000000 53.000000"
 preserveAspectRatio="xMidYMid meet">

<g transform="translate(0.000000,53.000000) scale(0.100000,-0.100000)"
fill="#000000" stroke="none">
<path d="M122 498 c-7 -7 -12 -17 -12 -24 0 -6 -13 -14 -30 -17 -48 -10 -60
-48 -60 -182 0 -166 13 -184 133 -185 l77 0 0 30 c0 44 23 93 56 119 24 19 38
22 82 19 l52 -5 0 76 c0 68 -3 79 -25 104 -14 15 -35 27 -45 27 -13 0 -20 7
-20 19 0 19 -23 35 -34 24 -3 -4 -6 -15 -6 -25 0 -16 -9 -18 -70 -18 -63 0
-70 2 -70 19 0 25 -13 34 -28 19z m258 -148 c0 -19 -7 -20 -160 -20 -153 0
-160 1 -160 20 0 19 7 20 160 20 153 0 160 -1 160 -20z m-210 -69 c0 -12 -9
-21 -25 -25 -32 -8 -45 -1 -45 25 0 15 7 19 35 19 28 0 35 -4 35 -19z m118 2
c2 -7 -9 -18 -24 -23 -21 -8 -31 -8 -42 4 -8 8 -11 19 -7 26 9 14 67 9 73 -7z
m-123 -98 c0 -13 -8 -21 -24 -23 -28 -4 -46 11 -37 33 9 25 61 16 61 -10z"/>
<path d="M299 191 c-41 -42 -41 -101 1 -143 26 -25 36 -29 63 -24 111 21 98
196 -14 196 -11 0 -34 -13 -50 -29z m59 -48 c2 -12 12 -23 24 -26 32 -9 15
-32 -23 -32 -37 0 -46 16 -35 62 8 28 30 26 34 -4z"/>
</g>
</svg>
