<?xml version="1.0" standalone="no"?>
<!DOCTYPE svg PUBLIC "-//W3C//DTD SVG 20010904//EN"
 "http://www.w3.org/TR/2001/REC-SVG-20010904/DTD/svg10.dtd">
<svg version="1.0" xmlns="http://www.w3.org/2000/svg"
 width="45.000000pt" height="52.000000pt" viewBox="0 0 45.000000 52.000000"
 preserveAspectRatio="xMidYMid meet">

<g transform="translate(0.000000,52.000000) scale(0.100000,-0.100000)"
fill="#000000" stroke="none">
<path d="M42 508 c-17 -17 -17 -459 0 -476 17 -17 349 -17 366 0 17 17 17 459
0 476 -17 17 -349 17 -366 0z m323 -113 l0 -60 -140 0 -140 0 -3 49 c-5 79
-10 77 145 74 l138 -3 0 -60z m-225 -155 c0 -25 -4 -30 -25 -30 -27 0 -41 20
-31 45 3 8 17 15 31 15 21 0 25 -5 25 -30z m110 0 c0 -25 -4 -30 -25 -30 -21
0 -25 5 -25 30 0 25 4 30 25 30 21 0 25 -5 25 -30z m115 -65 l0 -90 -27 -3
-28 -3 0 96 0 96 28 -3 27 -3 0 -90z m-227 -63 c3 -31 2 -33 -25 -30 -17 2
-29 10 -31 21 -6 30 6 49 30 45 18 -2 24 -11 26 -36z m110 0 c3 -29 1 -32 -22
-32 -22 0 -26 5 -26 28 0 33 8 44 30 40 9 -2 16 -16 18 -36z"/>
</g>
</svg>
