<?xml version="1.0" standalone="no"?>
<!DOCTYPE svg PUBLIC "-//W3C//DTD SVG 20010904//EN"
 "http://www.w3.org/TR/2001/REC-SVG-20010904/DTD/svg10.dtd">
<svg version="1.0" xmlns="http://www.w3.org/2000/svg"
 width="60.000000pt" height="67.000000pt" viewBox="0 0 60.000000 67.000000"
 preserveAspectRatio="xMidYMid meet">

<g transform="translate(0.000000,67.000000) scale(0.100000,-0.100000)"
fill="#000000" stroke="none">
<path d="M222 650 c-97 -60 -97 -210 0 -270 94 -57 208 17 208 135 0 118 -114
192 -208 135z"/>
<path d="M122 303 c-55 -27 -76 -67 -81 -152 -3 -63 -1 -77 15 -88 22 -16 434
-19 465 -3 16 9 19 22 19 76 0 100 -38 161 -113 179 -24 6 -27 4 -27 -18 0
-15 14 -39 35 -60 31 -31 35 -41 35 -85 0 -36 -4 -52 -16 -56 -29 -11 -44 -6
-44 14 0 11 5 20 10 20 14 0 12 64 -2 78 -15 15 -61 15 -76 0 -14 -14 -16 -78
-2 -78 6 0 10 -9 10 -21 0 -16 -5 -20 -27 -17 -26 3 -28 6 -31 56 -3 50 -1 56
32 87 20 19 36 42 36 53 0 16 -7 19 -52 18 -29 -1 -65 2 -80 7 -28 7 -28 7
-28 -41 0 -35 5 -52 20 -65 41 -35 16 -117 -36 -117 -58 0 -85 71 -43 116 15
17 19 32 17 67 l-3 46 -33 -16z"/>
<path d="M161 176 c-15 -18 -3 -46 20 -46 25 0 35 26 19 45 -15 19 -24 19 -39
1z"/>
</g>
</svg>
