<?xml version="1.0" standalone="no"?>
<!DOCTYPE svg PUBLIC "-//W3C//DTD SVG 20010904//EN"
 "http://www.w3.org/TR/2001/REC-SVG-20010904/DTD/svg10.dtd">
<svg version="1.0" xmlns="http://www.w3.org/2000/svg"
 width="50.000000pt" height="48.000000pt" viewBox="0 0 50.000000 48.000000"
 preserveAspectRatio="xMidYMid meet">

<g transform="translate(0.000000,48.000000) scale(0.100000,-0.100000)"
fill="#000000" stroke="none">
<path d="M26 389 c-25 -30 -26 -35 -26 -164 0 -129 1 -134 26 -164 20 -24 34
-31 62 -31 76 1 92 34 92 195 0 161 -16 194 -92 195 -28 0 -42 -7 -62 -31z
m85 -29 c15 -9 19 -22 19 -70 l0 -60 -40 0 -40 0 0 52 c0 34 6 58 17 70 19 21
19 21 44 8z"/>
<path d="M294 300 c-12 -5 -24 -13 -27 -18 -4 -4 34 -52 83 -105 78 -84 90
-94 102 -80 21 26 17 123 -7 155 -36 49 -100 69 -151 48z"/>
<path d="M222 225 c-26 -56 -6 -135 43 -173 33 -26 109 -30 139 -7 17 13 13
20 -70 109 -48 53 -91 96 -94 96 -4 0 -12 -11 -18 -25z"/>
</g>
</svg>
