<?xml version="1.0" standalone="no"?>
<!DOCTYPE svg PUBLIC "-//W3C//DTD SVG 20010904//EN"
 "http://www.w3.org/TR/2001/REC-SVG-20010904/DTD/svg10.dtd">
<svg version="1.0" xmlns="http://www.w3.org/2000/svg"
 width="81.000000pt" height="89.000000pt" viewBox="0 0 81.000000 89.000000"
 preserveAspectRatio="xMidYMid meet">

<g transform="translate(0.000000,89.000000) scale(0.100000,-0.100000)"
fill="#000000" stroke="none">
<path d="M305 779 c-79 -32 -77 -29 -73 -155 2 -95 6 -117 24 -141 74 -99 204
-99 278 0 19 25 21 42 21 145 l0 117 -50 24 c-66 32 -136 36 -200 10z m105
-44 c0 -8 9 -15 20 -15 12 0 20 -7 20 -16 0 -9 -9 -18 -20 -21 -11 -3 -20 -12
-20 -19 0 -8 -7 -14 -15 -14 -8 0 -15 6 -15 14 0 7 -9 16 -20 19 -11 3 -20 10
-20 17 0 7 9 14 20 17 11 3 20 12 20 19 0 8 7 14 15 14 8 0 15 -7 15 -15z m90
-165 c0 -19 -11 -42 -29 -62 -25 -28 -36 -33 -76 -33 -40 0 -51 5 -76 33 -18
20 -29 43 -29 62 l0 30 105 0 105 0 0 -30z"/>
<path d="M204 370 c-33 -13 -93 -90 -100 -127 -10 -51 11 -91 55 -103 47 -13
425 -13 472 0 91 25 65 174 -39 224 -55 27 -73 21 -137 -44 l-59 -60 -61 60
c-62 61 -83 69 -131 50z"/>
</g>
</svg>
