<?xml version="1.0" standalone="no"?>
<!DOCTYPE svg PUBLIC "-//W3C//DTD SVG 20010904//EN"
 "http://www.w3.org/TR/2001/REC-SVG-20010904/DTD/svg10.dtd">
<svg version="1.0" xmlns="http://www.w3.org/2000/svg"
 width="67.000000pt" height="66.000000pt" viewBox="0 0 67.000000 66.000000"
 preserveAspectRatio="xMidYMid meet">

<g transform="translate(0.000000,66.000000) scale(0.100000,-0.100000)"
fill="#000000" stroke="none">
<path d="M194 620 c-63 -32 -124 -80 -124 -99 0 -6 -4 -11 -9 -11 -5 0 -11 -8
-15 -17 -48 -139 -48 -157 0 -295 4 -10 10 -18 15 -18 5 0 9 -5 9 -11 0 -19
61 -67 124 -99 84 -43 178 -43 262 0 63 32 124 80 124 99 0 6 4 11 9 11 5 0
11 8 15 18 48 138 48 156 0 295 -4 9 -10 17 -15 17 -5 0 -9 5 -9 11 0 19 -61
67 -124 99 -49 25 -71 30 -131 30 -60 0 -82 -5 -131 -30z m159 -89 c13 -5 36
-20 51 -34 21 -20 26 -33 26 -75 0 -44 -4 -54 -31 -76 -42 -36 -106 -36 -148
0 -27 22 -31 32 -31 75 0 54 14 77 65 103 35 19 36 19 68 7z m125 -299 c18
-16 32 -33 32 -38 -1 -13 -69 -59 -109 -72 -43 -15 -109 -15 -152 0 -40 13
-108 59 -109 72 0 5 14 22 32 38 31 27 34 28 153 28 119 0 122 -1 153 -28z"/>
</g>
</svg>
