<?xml version="1.0" standalone="no"?>
<!DOCTYPE svg PUBLIC "-//W3C//DTD SVG 20010904//EN"
 "http://www.w3.org/TR/2001/REC-SVG-20010904/DTD/svg10.dtd">
<svg version="1.0" xmlns="http://www.w3.org/2000/svg"
 width="44.000000pt" height="53.000000pt" viewBox="0 0 44.000000 53.000000"
 preserveAspectRatio="xMidYMid meet">

<g transform="translate(0.000000,53.000000) scale(0.100000,-0.100000)"
fill="#000000" stroke="none">
<path d="M202 523 c-7 -3 -17 -16 -22 -29 -8 -19 -17 -24 -45 -24 -76 0 -75 3
-75 -218 0 -141 3 -201 12 -210 17 -17 299 -17 316 0 9 9 12 69 12 210 0 221
1 218 -75 218 -28 0 -37 5 -44 24 -13 31 -44 43 -79 29z m46 -56 c2 -12 -3
-17 -17 -17 -12 0 -21 6 -21 13 0 31 32 34 38 4z m-85 -131 c5 -13 -10 -36
-24 -36 -10 0 -20 30 -13 41 8 14 31 11 37 -5z m185 -8 c-3 -9 -30 -14 -76
-16 -60 -2 -72 0 -72 13 0 12 14 15 76 15 56 0 75 -3 72 -12z m-191 -79 c14
-14 6 -39 -12 -39 -18 0 -26 15 -19 34 7 19 16 20 31 5z m191 -16 c3 -10 -16
-13 -72 -13 -62 0 -76 3 -76 15 0 13 12 15 72 13 46 -2 73 -7 76 -15z m-180
-90 c5 -17 -26 -29 -40 -15 -6 6 -7 15 -3 22 9 14 37 9 43 -7z m177 -3 c0 -11
-15 -16 -64 -18 -64 -3 -89 6 -76 28 4 7 32 10 73 8 52 -2 67 -6 67 -18z"/>
</g>
</svg>
